<?xml version="1.0" encoding="UTF-8"?>
<svg version="1.1" xmlns="http://www.w3.org/2000/svg" width="2048" height="2048" viewBox="0 0 2048 2048">
<path d="M0 0 C1.67863129 0.00273422 1.67863129 0.00273422 3.39117432 0.00552368 C56.92422316 0.15109958 106.50895834 7.2117483 154.54443359 32.17285156 C157.08012239 33.48307907 159.62796934 34.76819922 162.17578125 36.0546875 C172.22541107 41.16804169 181.93433453 46.53140129 191.39892578 52.65991211 C222.63000371 73.90621506 222.63000371 73.90621506 258.75 80.3125 C264.72854357 78.78893567 268.93446232 76.08365628 272.3515625 70.9296875 C281.89922829 53.06115096 284.47754004 31.94725975 287.75 12.3125 C299.96 12.3125 312.17 12.3125 324.75 12.3125 C324.75 21.59018546 324.58636065 30.64241029 323.9453125 39.8671875 C323.81721393 41.81379422 323.68914122 43.76040281 323.56204319 45.70707512 C323.47275746 47.07304003 323.38297046 48.43897227 323.29270077 49.80487251 C319.05495734 113.98154411 318.42041094 178.11631676 317.94258499 242.41131973 C317.76889696 265.67116184 317.50018867 288.92915383 317.1875 312.1875 C317.1649263 313.88087944 317.14237357 315.57425915 317.11984253 317.26763916 C316.99967852 326.28263694 316.87678123 335.29759261 316.75 344.3125 C311.64136104 344.3371501 306.53275641 344.35533607 301.42407227 344.36743164 C299.68480832 344.37247204 297.94554864 344.3793043 296.20629883 344.38793945 C293.71174063 344.40001792 291.21723827 344.40573108 288.72265625 344.41015625 C287.94036148 344.41531754 287.15806671 344.42047882 286.35206604 344.42579651 C284.48432886 344.42599226 282.61670796 344.37449694 280.75 344.3125 C278.74950873 342.31200873 279.17235692 338.46265387 278.91796875 335.7109375 C278.76035334 334.10127669 278.60229507 332.4916592 278.44384766 330.88208008 C278.3616095 330.03416901 278.27937134 329.18625793 278.19464111 328.31265259 C276.67944085 312.84397917 274.8847661 297.54873627 271.75 282.3125 C271.54149414 281.27722168 271.33298828 280.24194336 271.11816406 279.17529297 C261.21200172 230.52870329 245.0171726 178.99386991 215.75 138.3125 C214.95188796 137.16883102 214.15509011 136.0242442 213.359375 134.87890625 C198.96974687 114.28929911 181.73146002 94.66057798 161.75 79.3125 C161.18941895 78.8808252 160.62883789 78.44915039 160.05126953 78.00439453 C112.46356562 41.58642063 50.91552782 28.84350315 -8.1184082 36.20288086 C-46.97008143 41.51214096 -82.38357743 56.49455212 -111.25 83.3125 C-111.80526367 83.82393555 -112.36052734 84.33537109 -112.93261719 84.86230469 C-143.97918051 113.74910709 -159.73170058 155.20273365 -161.359375 197.12988281 C-162.28736288 232.05702671 -157.35385627 266.95033601 -141.25 298.3125 C-140.94400879 298.91449219 -140.63801758 299.51648438 -140.32275391 300.13671875 C-132.90157119 314.56212271 -123.2382316 327.34224371 -112.203125 339.2109375 C-110.44928358 341.09807087 -108.78451702 343.03037122 -107.125 345 C-98.88438046 354.42880189 -89.89948392 363.4017625 -80.0078125 371.08984375 C-77.64179642 372.99673207 -75.40520997 374.96753466 -73.1550293 377.00708008 C-68.60861196 381.05586495 -63.89288013 384.78722164 -59.01171875 388.421875 C-58.15245285 389.06356628 -57.29318695 389.70525757 -56.40788269 390.36639404 C-46.85228062 397.43852731 -36.98393573 404.01901856 -27.0625 410.5625 C-25.27374016 411.74947515 -23.48532824 412.93697479 -21.69726562 414.125 C-11.56175111 420.85033559 -1.37736072 427.49766077 8.8480072 434.08544922 C12.15269028 436.21743098 15.45082515 438.35950905 18.75 440.5 C36.45231931 451.96396911 54.25031841 463.28015482 72.04833984 474.59472656 C74.77871638 476.33075849 77.50859501 478.0675704 80.23828125 479.8046875 C81.14707031 480.38299316 82.05585938 480.96129883 82.9921875 481.55712891 C84.83224568 482.72834157 86.67208914 483.89989165 88.51171875 485.07177734 C93.02699082 487.94738528 97.54592513 490.81680961 102.07421875 493.671875 C124.70425393 507.96169891 146.85615273 522.92094498 168.75 538.3125 C169.52520996 538.85600098 170.30041992 539.39950195 171.09912109 539.95947266 C175.99561693 543.39249969 180.87850814 546.84409025 185.75 550.3125 C186.45366699 550.81281738 187.15733398 551.31313477 187.88232422 551.82861328 C199.58114957 560.16241864 211.04315206 568.78546611 222.43359375 577.53515625 C224.42066537 579.05980648 226.41184082 580.57872262 228.40625 582.09375 C236.38653389 588.17772881 244.17584701 594.4793103 251.93847656 600.83740234 C253.49881832 602.10796635 255.07240868 603.36222872 256.6484375 604.61328125 C275.53559407 619.67196013 293.92598623 637.24032196 308.75 656.3125 C310.32988537 658.16960546 311.9134403 660.02359329 313.5 661.875 C325.05431878 675.74018254 336.72768993 691.08994067 344.75 707.3125 C344.82071501 689.72456458 344.87328912 672.13667478 344.90543652 654.54862881 C344.92077325 646.37848031 344.94160312 638.20842114 344.97631836 630.03833008 C345.00663249 622.90049402 345.0256702 615.76272277 345.03226548 608.62482411 C345.03610835 604.86058921 345.0448466 601.09653934 345.06719017 597.33236504 C346.74881276 540.85342914 346.74881276 540.85342914 323.59375 491.98046875 C299.04628746 469.77333633 261.12835867 467.65159287 229.57641602 466.6027832 C223.84273784 466.40523784 223.84273784 466.40523784 222.75 465.3125 C222.6616033 462.9368148 222.63469695 460.59041326 222.65234375 458.21484375 C222.6537587 457.50598526 222.65517365 456.79712677 222.65663147 456.06678772 C222.66224557 453.79448288 222.67480037 451.52227525 222.6875 449.25 C222.69251319 447.71289204 222.69707641 446.17578255 222.70117188 444.63867188 C222.71221958 440.86324358 222.72949359 437.08788829 222.75 433.3125 C223.90218018 433.33311493 225.05436035 433.35372986 226.24145508 433.37496948 C267.07641453 434.10238665 307.91270365 434.73266668 348.75 435.3125 C350.01844789 435.33054625 350.01844789 435.33054625 351.31252098 435.34895706 C441.94712818 436.637226 532.58008987 437.42106453 667.77470096 437.50000721 C672.56247529 437.49987455 677.35024915 437.50043521 682.13802338 437.50138092 C738.76250481 437.51204486 795.38438227 437.41074438 852.00679302 436.89449143 C855.34451818 436.86409252 858.68224935 436.83443205 862.01998138 436.80480003 C915.2771211 436.32453459 968.52154317 435.11698969 1021.75 433.3125 C1021.2486901 443.38213275 1020.51808367 453.42294283 1019.6640625 463.46875 C1017.29232809 491.52560933 1015.25530242 519.55671763 1014 547.6875 C1013.94128723 548.99114502 1013.88257446 550.29479004 1013.82208252 551.63793945 C1013.42738432 560.52814708 1013.07518744 569.41949248 1012.75 578.3125 C1012.7016098 579.61868286 1012.6532196 580.92486572 1012.60336304 582.27062988 C1011.84039199 603.16568877 1011.54883808 624.04564285 1011.56111908 644.95410538 C1011.56252747 647.35940882 1011.56241452 649.76470962 1011.56231689 652.17001343 C1011.57057337 679.59112564 1012.23663354 706.92992881 1013.75 734.3125 C1013.80045471 735.23432068 1013.85090942 736.15614136 1013.90289307 737.105896 C1014.05571194 739.89745604 1014.20939599 742.6889673 1014.36328125 745.48046875 C1014.41186279 746.36571732 1014.46044434 747.25096588 1014.51049805 748.16304016 C1014.73855045 752.29931167 1014.97372967 756.43483409 1015.22802734 760.56958008 C1015.27090378 761.29587112 1015.31378021 762.02216217 1015.35795593 762.77046204 C1015.47240035 764.7072083 1015.59184566 766.64365726 1015.71166992 768.58007812 C1015.72431885 769.48177734 1015.73696777 770.38347656 1015.75 771.3125 C1014.75 772.3125 1014.75 772.3125 1011.33178711 772.42602539 C1009.81363012 772.42586628 1008.29546771 772.42017226 1006.77734375 772.41015625 C1005.97970108 772.4087413 1005.18205841 772.40732635 1004.36024475 772.40586853 C1001.80262565 772.40025316 999.24509282 772.38769812 996.6875 772.375 C994.95768355 772.36998698 993.22786574 772.36542373 991.49804688 772.36132812 C987.24866447 772.35027875 982.99934688 772.33300386 978.75 772.3125 C977.32614936 765.55458144 976.17818041 758.80130847 975.234375 751.9609375 C974.95362521 749.97162053 974.67243957 747.98236504 974.39086914 745.99316406 C974.17335495 744.44973328 974.17335495 744.44973328 973.95144653 742.87512207 C971.07586602 722.57091497 967.93249197 702.39321775 963.75 682.3125 C963.60282532 681.60409973 963.45565063 680.89569946 963.30401611 680.16583252 C952.9246537 630.38396755 940.88466285 577.03117887 908.4609375 536.46484375 C907.2947676 534.99781267 906.15492518 533.50955658 905.0390625 532.00390625 C901.67621229 527.49220902 898.2203193 523.70758854 893.890625 520.11328125 C891.56815269 518.15952261 889.39278085 516.08479365 887.1875 514 C843.79793378 475.04875582 779.37414572 471.18863815 724.13439465 471.11231136 C722.0852629 471.10934004 720.03613624 471.10522853 717.98700714 471.10080719 C711.51943934 471.08719199 705.05188377 471.07749764 698.58430266 471.0736053 C691.22347604 471.06914579 683.86283706 471.05167103 676.50206733 471.0226047 C670.74250436 471.00068396 664.98299297 470.99088511 659.22338891 470.98956418 C655.81602706 470.98853703 652.40898121 470.98153895 649.00164032 470.96474457 C595.99885393 470.1291397 595.99885393 470.1291397 549.58984375 492.2734375 C537.30602456 505.00695335 532.89318532 522.72714648 530.5625 539.75 C530.39814453 540.86181641 530.23378906 541.97363281 530.06445312 543.11914062 C528.0877289 556.95621019 527.59975084 570.72164735 527.59178162 584.67514038 C527.5872054 586.39076685 527.58220386 588.10639224 527.57681805 589.82201636 C527.5633481 594.49923305 527.55585126 599.17644255 527.54939139 603.85367346 C527.54133796 608.91142452 527.52765745 613.96916085 527.51467896 619.02690125 C527.49298587 627.77747508 527.47481541 636.52805045 527.45907402 645.27863693 C527.43630979 657.93033718 527.40817625 670.58202107 527.37875474 683.23370738 C527.3311589 703.76289403 527.28787316 724.29208739 527.24731445 744.82128906 C527.20791868 764.75716677 527.16648275 784.69303852 527.12231445 804.62890625 C527.11822804 806.47383282 527.11822804 806.47383282 527.11405908 808.35603063 C527.10037893 814.52666325 527.08665879 820.69729578 527.07291877 826.86792827 C526.95907988 878.0161064 526.85224285 929.16429746 526.75 980.3125 C540.41708176 980.25081493 554.08398 980.17337744 567.75086212 980.07678509 C574.09951974 980.03238971 580.4481177 979.99306904 586.796875 979.96606445 C592.94380661 979.93971963 599.09050468 979.89910696 605.23728943 979.84931374 C607.56193599 979.83285278 609.88662274 979.82121121 612.21131897 979.81488609 C652.92945732 979.69308409 688.35084995 973.25050153 718.17871094 943.89794922 C756.18704869 905.5470876 765.26201759 847.75128433 774.36907959 796.80184937 C775.72396799 789.2801665 777.24996204 781.81268978 778.75 774.3125 C790.96 774.3125 803.17 774.3125 815.75 774.3125 C815.2859375 782.913125 815.2859375 782.913125 814.8125 791.6875 C814.60783298 795.48359634 814.60783298 795.48359634 814.40318298 799.2796936 C814.3200013 800.81696852 814.23634957 802.35421804 814.15235901 803.89144897 C813.92627218 808.03049136 813.70535065 812.16966512 813.49560547 816.30957031 C813.45366562 817.11504303 813.41172577 817.92051575 813.36851501 818.75039673 C813.28964061 820.26522177 813.21309464 821.78017075 813.13941956 823.29525757 C812.90674069 827.69321945 812.43223724 831.96763251 811.75 836.3125 C820.28184632 836.55719046 828.81372486 836.80071926 837.34564018 837.04299068 C841.31279833 837.15567344 845.27994677 837.26867308 849.24707031 837.38256836 C888.64141382 838.51282518 928.02869617 839.44721472 967.4375 839.875 C969.33864366 839.89603328 971.23978704 839.91709074 973.14093018 839.93817139 C1014.70976724 840.39598293 1056.24441337 840.37555894 1097.8125 839.875 C1098.64105247 839.8651432 1099.46960495 839.85528641 1100.32326508 839.84513092 C1106.01895185 839.77716742 1111.71457672 839.70534187 1117.41015625 839.62890625 C1118.63720654 839.61244427 1118.63720654 839.61244427 1119.88904572 839.59564972 C1129.41607391 839.46484843 1138.94118822 839.29512963 1148.46630859 839.06298828 C1176.92531973 838.37152211 1205.37136205 838.09379339 1233.83886719 838.07226562 C1238.79401902 838.06785262 1243.7489995 838.05380195 1248.70410156 838.03125 C1277.86892392 837.90139861 1306.72914858 838.24605625 1335.75 841.3125 C1336.45700232 841.3865657 1337.16400463 841.46063141 1337.89243126 841.53694153 C1378.6206971 845.8145351 1419.37167869 853.78778147 1457.75 868.3125 C1458.79099854 868.70236084 1458.79099854 868.70236084 1459.85302734 869.10009766 C1464.19489459 870.73827007 1468.4832312 872.48934879 1472.75 874.3125 C1473.4925 874.62767578 1474.235 874.94285156 1475 875.26757812 C1501.30956016 886.52174874 1525.70190791 901.02660873 1547.75 919.3125 C1548.2960791 919.75706543 1548.8421582 920.20163086 1549.40478516 920.65966797 C1563.82218396 932.41603887 1577.41047452 945.54749287 1588.75 960.3125 C1589.8103006 961.62417678 1590.87301067 962.93390778 1591.9375 964.2421875 C1604.15352621 979.39577192 1614.62524282 995.67851609 1622.83496094 1013.34667969 C1623.45176852 1014.67179565 1624.07763932 1015.9927258 1624.71191406 1017.30957031 C1662.27101104 1095.2997111 1657.67769987 1188.79120097 1630.75 1269.3125 C1627.76282477 1277.79661813 1624.36855027 1286.08064622 1620.75 1294.3125 C1620.41822754 1295.08609863 1620.08645508 1295.85969727 1619.74462891 1296.65673828 C1589.45117649 1366.9757869 1530.52501748 1416.50189201 1463.75 1450.3125 C1463.03231445 1450.67939941 1462.31462891 1451.04629883 1461.57519531 1451.42431641 C1391.01731349 1487.22694274 1308.51215865 1496.20170114 1186.99562407 1496.45655447 C1178.98772864 1496.43376185 1170.97982885 1496.42309335 1162.97190881 1496.41314721 C1146.56456785 1496.39251204 1130.15729248 1496.35757714 1113.75 1496.3125 C1113.85492508 1532.22833265 1113.96477324 1568.14414693 1114.08111694 1604.05994445 C1114.0948846 1608.31136585 1114.10861198 1612.56278738 1114.12231445 1616.81420898 C1114.12640691 1618.08364709 1114.12640691 1618.08364709 1114.13058204 1619.37873041 C1114.17451714 1633.03665546 1114.21519851 1646.69458832 1114.25465261 1660.35252697 C1114.29528527 1674.39305397 1114.33947206 1688.43356662 1114.38687855 1702.4740724 C1114.41596196 1711.12024954 1114.44235567 1719.76642594 1114.46517897 1728.41262191 C1114.48115024 1734.36187985 1114.5006098 1740.31112037 1114.52266841 1746.26035882 C1114.53524863 1749.67983578 1114.5459078 1753.09928779 1114.55341911 1756.51878166 C1114.54117098 1786.88642708 1114.54117098 1786.88642708 1117.0625 1817.125 C1117.19293701 1818.16068115 1117.32337402 1819.1963623 1117.45776367 1820.26342773 C1120.63242238 1844.29535269 1126.55620963 1869.5547572 1146.65625 1885.19140625 C1150.15983652 1887.59348641 1153.72254188 1889.62849632 1157.5 1891.5625 C1158.10618164 1891.87936768 1158.71236328 1892.19623535 1159.33691406 1892.52270508 C1169.82523812 1897.66565451 1181.56201987 1899.92776393 1193 1901.875 C1194.22799316 1902.08479492 1195.45598633 1902.29458984 1196.72119141 1902.51074219 C1218.64915264 1906.07791773 1240.96274803 1907.59796197 1263.15649414 1908.15478516 C1267.03305511 1908.39052444 1270.89003169 1908.88361463 1274.75 1909.3125 C1274.75 1920.2025 1274.75 1931.0925 1274.75 1942.3125 C1265.78044149 1942.3125 1257.31244205 1942.26693026 1248.44121075 1941.72682381 C1240.66755913 1941.25837253 1232.88649003 1941.03525654 1225.1027832 1940.81201172 C1224.36089268 1940.79048593 1223.61900216 1940.76896015 1222.85463011 1940.74678206 C1206.89860693 1940.28710055 1190.94154843 1939.97785688 1174.98046875 1939.7578125 C1173.87701162 1939.7422694 1173.87701162 1939.7422694 1172.75126243 1939.7264123 C1129.51817035 1939.11983087 1086.28235855 1939.16046359 1043.04591358 1939.18393064 C1035.26408448 1939.18771478 1027.48226809 1939.1863275 1019.70043945 1939.18212891 C958.77571521 1939.11688809 958.77571521 1939.11688809 897.85546875 1939.7578125 C896.69314539 1939.77722775 895.53082203 1939.79664299 894.33327675 1939.81664658 C881.44449817 1940.04084674 868.56067113 1940.39021786 855.67700195 1940.81201172 C853.79388321 1940.87320033 853.79388321 1940.87320033 851.87272167 1940.93562508 C845.51016161 1941.15215962 839.16345571 1941.43834427 832.8125 1941.875 C825.47096033 1942.32978564 818.10561246 1942.3125 810.75 1942.3125 C810.75 1931.7525 810.75 1921.1925 810.75 1910.3125 C815.49375 1909.9 820.2375 1909.4875 825.125 1909.0625 C874.59447255 1905.67737497 874.59447255 1905.67737497 914.75390625 1879.96875 C925.67967661 1865.43251989 928.2595091 1846.51835077 930.4375 1828.9375 C930.55689941 1827.98327148 930.67629883 1827.02904297 930.79931641 1826.04589844 C933.10041855 1805.96536888 932.89808435 1785.75650018 932.88466892 1765.57776316 C932.88301757 1761.41715791 932.88719168 1757.25655747 932.89057809 1753.09595382 C932.89570438 1745.82102664 932.89715414 1738.5461061 932.89612198 1731.27117729 C932.89459078 1720.45220148 932.89877263 1709.63323296 932.9039966 1698.81425857 C932.91364681 1678.36175578 932.91647998 1657.90925551 932.91705366 1637.45675071 C932.91751396 1621.65609178 932.91957622 1605.85543384 932.92275429 1590.05477524 C932.92365189 1585.49951073 932.92454171 1580.94424621 932.92542917 1576.3889817 C932.92576074 1574.69009249 932.92576074 1574.69009249 932.92609901 1572.95688229 C932.93224972 1541.11652943 932.93619993 1509.27617692 932.93575573 1477.43582344 C932.93574015 1476.2363692 932.93572457 1475.03691496 932.93570852 1473.80111363 C932.93562542 1467.72238137 932.93552638 1461.64364912 932.93542381 1455.56491686 C932.93540387 1454.35775375 932.93538392 1453.15059064 932.93536337 1451.90684683 C932.93532294 1449.46567025 932.93528114 1447.02449367 932.93523798 1444.58331709 C932.93462545 1406.61641329 932.94212915 1368.64951843 932.95581055 1330.68261719 C932.97119122 1287.98294602 932.97977557 1245.28328072 932.97884732 1202.5836066 C932.9787727 1198.02519854 932.97872399 1193.46679048 932.97869301 1188.90838242 C932.97868135 1187.78606747 932.9786697 1186.66375253 932.97865769 1185.50742804 C932.978627 1167.49428259 932.98499618 1149.48114494 932.99362527 1131.4680018 C933.00212708 1113.34496357 933.00307198 1095.22193666 932.99651595 1077.09889753 C932.99283712 1066.35165121 932.99460247 1055.60443946 933.00445829 1044.85719684 C933.01050071 1037.65580177 933.00911603 1030.45443147 933.00198779 1023.25303749 C932.99814186 1019.16486861 932.99722559 1015.07676612 933.00544515 1010.98860218 C935.30882174 948.46669405 935.30882174 948.46669405 910.9375 893.9375 C888.36581654 873.01211975 850.27289128 870.57129364 821.0625 869.48828125 C817.57796769 869.30337093 814.19988459 868.82481605 810.75 868.3125 C810.56701832 962.05448174 810.92155064 1055.83396712 818.3203125 1182.59228516 C818.39037506 1183.60377798 818.39037506 1183.60377798 818.46185303 1184.63570499 C818.68153802 1187.80341663 818.90609317 1190.97060154 819.140625 1194.13725281 C819.70976207 1202.20776139 819.84650058 1210.22306148 819.75 1218.3125 C814.64136104 1218.3371501 809.53275641 1218.35533607 804.42407227 1218.36743164 C802.68480832 1218.37247204 800.94554864 1218.3793043 799.20629883 1218.38793945 C796.71174063 1218.40001792 794.21723827 1218.40573108 791.72265625 1218.41015625 C790.94036148 1218.41531754 790.15806671 1218.42047882 789.35206604 1218.42579651 C787.48432886 1218.42599226 785.61670796 1218.37449694 783.75 1218.3125 C781.73357221 1216.29607221 781.96514331 1212.46588159 781.5859375 1209.6953125 C781.35283477 1208.05688925 781.11916651 1206.41854638 780.88500977 1204.78027344 C780.76167267 1203.91011597 780.63833557 1203.0399585 780.51126099 1202.14343262 C767.42614019 1110.20992254 767.42614019 1110.20992254 713.50390625 1037.65625 C700.28568693 1028.01899647 685.48788711 1022.30405016 669.75 1018.3125 C668.64914062 1018.01601562 667.54828125 1017.71953125 666.4140625 1017.4140625 C646.97859926 1012.66107996 626.32027847 1013.00238661 606.4375 1012.8984375 C604.1176693 1012.87966014 601.79784496 1012.86008227 599.47802734 1012.8397522 C593.46140346 1012.78911707 587.44475759 1012.74913101 581.42803955 1012.71160889 C575.25275548 1012.67113101 569.07755735 1012.62024194 562.90234375 1012.5703125 C550.85162347 1012.47436935 538.80085387 1012.38971208 526.75 1012.3125 C526.80901673 1060.61083935 526.88367036 1108.9091329 526.97898628 1157.20741497 C526.99025302 1162.92318854 527.0013917 1168.63896235 527.01245117 1174.35473633 C527.0157567 1176.06143401 527.0157567 1176.06143401 527.019129 1177.80261043 C527.0543994 1196.17057996 527.07932124 1214.53854945 527.10034702 1232.90654018 C527.12219113 1251.78582427 527.15532236 1270.66506482 527.19870156 1289.54431182 C527.22507076 1301.17237524 527.24287425 1312.80038452 527.24934604 1324.42847631 C527.2546454 1332.42701568 527.27101241 1340.42548722 527.29566566 1348.42399009 C527.30952684 1353.02294582 527.31891032 1357.62178058 527.31500816 1362.22075844 C527.29669336 1389.43911248 527.69917516 1416.82460704 534.75 1443.3125 C534.92756836 1443.98410156 535.10513672 1444.65570312 535.28808594 1445.34765625 C540.28610877 1463.55792128 550.47002251 1477.94632123 566.94384766 1487.47241211 C602.04020642 1506.77219968 648.78063215 1504.63108058 687.75 1506.3125 C687.75 1517.5325 687.75 1528.7525 687.75 1540.3125 C683.41230469 1540.10753906 679.07460937 1539.90257812 674.60546875 1539.69140625 C587.76041652 1535.74223537 500.81490159 1536.08513609 248.53564453 1539.05859375 C243.03401932 1539.35473126 237.53078816 1539.61522715 232.02734375 1539.875 C231.1008754 1539.91882812 230.17440704 1539.96265625 229.21986389 1540.0078125 C227.06325657 1540.10967136 224.90663045 1540.21113203 222.75 1540.3125 C222.72534608 1535.77352295 222.70716211 1531.23458457 222.69506836 1526.69555664 C222.6900286 1525.15030234 222.6831968 1523.60505284 222.67456055 1522.05981445 C222.66247924 1519.84324971 222.65676827 1517.62674782 222.65234375 1515.41015625 C222.64718246 1514.7153566 222.64202118 1514.02055695 222.63670349 1513.30470276 C222.63650723 1511.6402067 222.68810871 1509.97584501 222.75 1508.3125 C224.41387263 1506.64862737 226.47771293 1507.04636357 228.76953125 1506.91796875 C230.37646851 1506.81863037 230.37646851 1506.81863037 232.01586914 1506.71728516 C233.77145142 1506.609729 233.77145142 1506.609729 235.5625 1506.5 C284.05581244 1503.85833377 284.05581244 1503.85833377 324.9375 1480.5078125 C345.03842481 1456.16143374 344.92773935 1416.89317287 344.87025452 1387.02578735 C344.87069149 1385.31841147 344.87156873 1383.61103565 344.87284368 1381.90366018 C344.87506378 1377.24923553 344.87110167 1372.5948342 344.86606562 1367.94041252 C344.86172535 1362.90721008 344.86321007 1357.87400884 344.8639679 1352.84080505 C344.86449087 1344.1327852 344.86136775 1335.42477287 344.85573006 1326.71675491 C344.84758434 1314.12660252 344.84499669 1301.53645374 344.84374207 1288.946299 C344.84155637 1268.51693165 344.83490937 1248.0875683 344.82543945 1227.65820312 C344.81625285 1207.81933614 344.80917813 1187.98047025 344.80493164 1168.14160156 C344.80466892 1166.91762451 344.80440619 1165.69364746 344.80413551 1164.43258019 C344.80283042 1158.29191579 344.80156672 1152.15125139 344.80032361 1146.01058698 C344.78996601 1095.11122188 344.77236083 1044.21186114 344.75 993.3125 C344.43678362 993.8297892 344.12356724 994.3470784 343.80085945 994.88004303 C342.36567105 997.24752684 340.92724922 999.61303028 339.48876953 1001.97851562 C338.99613113 1002.79225647 338.50349274 1003.60599731 337.9959259 1004.44439697 C334.51282035 1010.16507577 330.83886764 1015.59999915 326.625 1020.8125 C326.03517334 1021.55677246 325.44534668 1022.30104492 324.83764648 1023.06787109 C320.94287994 1027.94338019 316.92283572 1032.66512753 312.67578125 1037.23828125 C310.89285644 1039.15863232 309.19379168 1041.1262434 307.5 1043.125 C299.07798078 1052.75573495 289.85598805 1061.47388106 279.75 1069.3125 C278.48416061 1070.31874078 277.21855135 1071.32527109 275.953125 1072.33203125 C196.53270189 1134.9279266 90.75385014 1151.63707468 -41.8125 1144 C-92.38507813 1137.82456252 -139.23071194 1120.50353707 -184.625 1097.875 C-185.71611084 1097.33262695 -186.80722168 1096.79025391 -187.93139648 1096.23144531 C-194.5666761 1092.86065548 -200.89548005 1089.13632855 -207.20556641 1085.19311523 C-211.3078391 1082.65904895 -215.48674572 1080.31317772 -219.75 1078.0625 C-220.95474976 1077.42646851 -220.95474976 1077.42646851 -222.18383789 1076.77758789 C-228.69860688 1073.42555548 -235.11251562 1071.0398364 -242.25 1069.3125 C-242.91644531 1069.12429688 -243.58289063 1068.93609375 -244.26953125 1068.7421875 C-250.94922896 1067.29294342 -257.59823741 1067.57557001 -263.54296875 1071.0625 C-272.26474171 1077.44915297 -275.80358734 1088.82429942 -278.3125 1098.875 C-278.5614502 1099.84574463 -278.81040039 1100.81648926 -279.06689453 1101.81665039 C-281.87860043 1113.20034296 -283.54674916 1124.71729233 -285.25 1136.3125 C-297.46 1136.3125 -309.67 1136.3125 -322.25 1136.3125 C-322.25 1130.44870419 -322.23268839 1124.83377677 -321.84765625 1119.0234375 C-321.76096994 1117.65234993 -321.67438537 1116.28125592 -321.58789062 1114.91015625 C-321.41098173 1112.18079444 -321.23031767 1109.45172129 -321.04882812 1106.72265625 C-319.45383442 1081.80869179 -319.10437966 1056.80738731 -318.77767944 1031.85076904 C-318.74903967 1029.67711422 -318.71946788 1027.5034736 -318.68969727 1025.32983398 C-317.50269924 938.33503303 -316.96105109 851.33262974 -316.25 745.3125 C-304.04 745.3125 -291.83 745.3125 -279.25 745.3125 C-278.81300781 749.95699219 -278.81300781 749.95699219 -278.3671875 754.6953125 C-274.78772963 792.06560195 -269.65112896 828.71498936 -261.25 865.3125 C-260.88720947 866.90626465 -260.88720947 866.90626465 -260.51708984 868.53222656 C-246.44069167 929.61923146 -223.21882109 990.2944854 -179.73828125 1036.63671875 C-177.65338915 1038.87871418 -175.65889794 1041.1592535 -173.6875 1043.5 C-169.59389831 1048.20328705 -164.95481115 1052.2345571 -160.25 1056.3125 C-159.24857141 1057.20037817 -158.24727347 1058.08840371 -157.24609375 1058.9765625 C-124.73279331 1087.50595985 -83.61410055 1102.23413766 -41.25 1108.3125 C-40.12198975 1108.48023926 -40.12198975 1108.48023926 -38.97119141 1108.65136719 C20.34312363 1117.23508682 86.14621005 1108.00475232 135.10058594 1071.59375 C138.27665696 1069.12660661 141.2535812 1066.46445557 144.1484375 1063.67578125 C145.75 1062.3125 145.75 1062.3125 147.75 1062.3125 C147.976875 1061.735 148.20375 1061.1575 148.4375 1060.5625 C149.75 1058.3125 149.75 1058.3125 152.06640625 1056.484375 C156.68995287 1052.74246536 160.09066313 1047.97201568 163.75 1043.3125 C164.48605469 1042.39210938 165.22210937 1041.47171875 165.98046875 1040.5234375 C199.75064191 997.13025924 207.50168348 938.35618231 201.16235352 885.00756836 C193.72411671 828.47280155 163.89422015 784.53717114 124.5 744.9375 C123.75532471 744.18807129 123.01064941 743.43864258 122.2434082 742.66650391 C102.25737317 722.74044697 78.89044288 706.24501177 55.97460938 689.89990234 C54.526158 688.86633882 53.07944856 687.83032832 51.63476562 686.79150391 C26.62930331 668.83251173 0.62899072 652.16863068 -25.55273438 635.98779297 C-33.83567013 630.8431962 -42.04167708 625.57501168 -50.25 620.3125 C-50.99942871 619.83264648 -51.74885742 619.35279297 -52.52099609 618.85839844 C-79.45870325 601.57623796 -106.10478776 583.77081385 -132.25 565.3125 C-133.75881261 564.25347589 -135.26791833 563.19486924 -136.77734375 562.13671875 C-146.2157982 555.51026108 -155.58764283 548.79224686 -164.91455078 542.00976562 C-166.50272728 540.85557338 -168.09229926 539.70329941 -169.68310547 538.55273438 C-179.2546737 531.62531896 -188.5853673 524.59021755 -197.48144531 516.80981445 C-198.83515305 515.66372258 -200.21453476 514.54789317 -201.60449219 513.44604492 C-208.81224445 507.71343746 -215.33363459 501.50679464 -221.80371094 494.96459961 C-223.50659392 493.2433349 -225.21746929 491.5303334 -226.9296875 489.81835938 C-237.15222182 479.56396588 -246.30514445 468.68772489 -255.25 457.3125 C-256.01441406 456.34441406 -256.77882813 455.37632812 -257.56640625 454.37890625 C-307.18064498 389.96262945 -322.4884403 309.46460113 -312.19140625 229.8046875 C-309.74417035 212.24900389 -305.91025871 195.11080486 -300.25 178.3125 C-299.89252686 177.24829834 -299.89252686 177.24829834 -299.52783203 176.16259766 C-296.19951883 166.42893769 -292.00221884 157.27173326 -287.22167969 148.17041016 C-286.32137236 146.44896825 -285.44478461 144.71517739 -284.5703125 142.98046875 C-274.73031212 123.88898475 -260.94638907 107.3368932 -246.375 91.6875 C-245.48409668 90.7294043 -245.48409668 90.7294043 -244.57519531 89.75195312 C-240.36926737 85.3096319 -235.8890986 81.2944323 -231.25 77.3125 C-230.18914916 76.36449891 -229.1304103 75.41412688 -228.07421875 74.4609375 C-215.00960052 62.83228762 -200.36022931 53.08740163 -185.25 44.3125 C-184.18910156 43.69375 -183.12820312 43.075 -182.03515625 42.4375 C-146.98351251 22.88112734 -106.06510176 10.60154612 -66.5625 4.5 C-65.30630859 4.30486816 -64.05011719 4.10973633 -62.75585938 3.90869141 C-41.92282016 0.89953365 -21.03069579 -0.07197026 0 0 Z M1138.1875 890.77734375 C1106.21142103 927.56063729 1113.59096068 992.07607254 1113.63393438 1037.06541133 C1113.63830229 1042.81415597 1113.63678801 1048.56289968 1113.6360321 1054.31164551 C1113.63551084 1064.24228818 1113.6386158 1074.17292421 1113.64426994 1084.10356522 C1113.65243925 1098.46114189 1113.6550057 1112.81871539 1113.65625793 1127.17629413 C1113.65843997 1150.47739452 1113.66506826 1173.77849137 1113.67456055 1197.07958984 C1113.68376404 1219.69807924 1113.69083828 1242.31656769 1113.69506836 1264.93505859 C1113.69519989 1265.63384519 1113.69533141 1266.33263179 1113.69546692 1267.05259374 C1113.69678559 1274.07092158 1113.69806138 1281.08924943 1113.69930578 1288.10757729 C1113.70972393 1346.84255385 1113.72734906 1405.5775269 1113.75 1464.3125 C1127.74847264 1464.38353534 1141.74691618 1464.4357379 1155.74553394 1464.46793652 C1162.24977293 1464.48341142 1168.7538886 1464.50430497 1175.25805664 1464.53881836 C1252.54849535 1464.93780397 1329.07642463 1459.72949149 1387.25488281 1403.04199219 C1393.53927242 1396.81192469 1399.39842209 1390.37306721 1404.75 1383.3125 C1405.14638672 1382.79252441 1405.54277344 1382.27254883 1405.95117188 1381.73681641 C1412.76512609 1372.73038473 1418.52981293 1363.32073184 1423.75 1353.3125 C1424.1197998 1352.61092773 1424.48959961 1351.90935547 1424.87060547 1351.18652344 C1443.11314074 1316.12603266 1450.76594348 1275.66372703 1455.9375 1236.8125 C1456.0924292 1235.66483154 1456.2473584 1234.51716309 1456.40698242 1233.3347168 C1459.33037695 1210.17194744 1460.12782807 1186.9879679 1460.06785583 1163.66844559 C1460.06241071 1161.46384764 1460.06004664 1159.25926046 1460.0579834 1157.05465698 C1460.02492629 1134.36697438 1459.4306252 1111.86179327 1456.75 1089.3125 C1456.60546387 1088.06307617 1456.46092773 1086.81365234 1456.31201172 1085.52636719 C1448.48509732 1020.01604709 1428.47103816 952.18064556 1375.5625 909 C1323.50330629 871.03743935 1191.69168302 839.3121921 1138.1875 890.77734375 Z " fill="#2A8AA8" transform="translate(363.25,50.6875)"/>
</svg>
